<svg width="9" height="6" viewBox="0 0 9 6" fill="none" xmlns="http://www.w3.org/2000/svg">
<path d="M0.270112 0.863663C0.120934 0.704667 0.120933 0.446883 0.270112 0.287888V0.287888C0.419291 0.128892 0.661157 0.128892 0.810336 0.287888L2.43101 2.01521L4.5919 4.31831C4.74108 4.47731 4.74108 4.73509 4.5919 4.89409V4.89409C4.44272 5.05308 4.20086 5.05308 4.05168 4.89409L0.270112 0.863663Z" fill="white"/>
<path d="M7.87161 0.287888C8.02079 0.128892 8.26266 0.128892 8.41184 0.287888V0.287888C8.56101 0.446883 8.56101 0.704667 8.41184 0.863662L6.79116 2.59099L4.63027 4.89409C4.48109 5.05308 4.23922 5.05308 4.09005 4.89409V4.89409C3.94087 4.73509 3.94087 4.47731 4.09005 4.31831L7.87161 0.287888Z" fill="white"/>
</svg>
